<svg id="visual" viewBox="0 0 960 540" width="960" height="540" xmlns="http://www.w3.org/2000/svg" xmlns:xlink="http://www.w3.org/1999/xlink" version="1.1"><path d="M0 254L20 254.3C40 254.7 80 255.3 120 270.7C160 286 200 316 240 331C280 346 320 346 360 333.2C400 320.3 440 294.7 480 295.2C520 295.7 560 322.3 600 327.3C640 332.3 680 315.7 720 289.5C760 263.3 800 227.7 840 218.8C880 210 920 228 940 237L960 246L960 541L940 541C920 541 880 541 840 541C800 541 760 541 720 541C680 541 640 541 600 541C560 541 520 541 480 541C440 541 400 541 360 541C320 541 280 541 240 541C200 541 160 541 120 541C80 541 40 541 20 541L0 541Z" fill="#715DF2" stroke-linecap="round" stroke-linejoin="miter"></path></svg>