<svg id="visual" viewBox="0 0 960 540" width="960" height="540" xmlns="http://www.w3.org/2000/svg" xmlns:xlink="http://www.w3.org/1999/xlink" version="1.1"><path d="M0 273L10 268.7C20 264.3 40 255.7 60 242.3C80 229 100 211 120 209.8C140 208.7 160 224.3 180 229.8C200 235.3 220 230.7 240 222.2C260 213.7 280 201.3 300 218.3C320 235.3 340 281.7 360 304.8C380 328 400 328 420 318.8C440 309.7 460 291.3 480 288.7C500 286 520 299 540 296.3C560 293.7 580 275.3 600 267.3C620 259.3 640 261.7 660 255.3C680 249 700 234 720 232.2C740 230.3 760 241.7 780 257.2C800 272.7 820 292.3 840 289.7C860 287 880 262 900 243.7C920 225.3 940 213.7 950 207.8L960 202L960 541L950 541C940 541 920 541 900 541C880 541 860 541 840 541C820 541 800 541 780 541C760 541 740 541 720 541C700 541 680 541 660 541C640 541 620 541 600 541C580 541 560 541 540 541C520 541 500 541 480 541C460 541 440 541 420 541C400 541 380 541 360 541C340 541 320 541 300 541C280 541 260 541 240 541C220 541 200 541 180 541C160 541 140 541 120 541C100 541 80 541 60 541C40 541 20 541 10 541L0 541Z" fill="#715DF2" stroke-linecap="round" stroke-linejoin="miter"></path></svg>